<svg width="50" height="50" viewBox="0 0 50 50" fill="none" xmlns="http://www.w3.org/2000/svg">
<rect x="0.5" y="0.5" width="49" height="49" rx="4.5" fill="white" fill-opacity="0.4"/>
<rect x="0.5" y="0.5" width="49" height="49" rx="4.5" stroke="#2600F8"/>
<path d="M21.875 15C27.3875 15 31.875 19.4875 31.875 25C31.875 30.5125 27.3875 35 21.875 35C21.45 35 21.025 34.975 20.6125 34.9125C23 32.2125 24.375 28.6875 24.375 25C24.375 21.3125 23 17.7875 20.6125 15.0875C21.025 15.025 21.45 15 21.875 15ZM21.875 12.5C19.6 12.5 17.4625 13.125 15.625 14.1875C19.3625 16.35 21.875 20.375 21.875 25C21.875 29.625 19.3625 33.65 15.625 35.8125C17.4625 36.875 19.6 37.5 21.875 37.5C28.775 37.5 34.375 31.9 34.375 25C34.375 18.1 28.775 12.5 21.875 12.5Z" fill="#2600F8"/>
</svg>
