<svg width="41" height="40" viewBox="0 0 41 40" fill="none" xmlns="http://www.w3.org/2000/svg">
<path d="M4.5025 2H36.52C37.6225 2 38.5 2.8775 38.5 3.98V36.02C38.5 37.1 37.6225 38 36.52 38H27.34V24.05H32.02L32.7175 18.6275H27.34V15.1625C27.34 13.5875 27.79 12.5075 30.04 12.5075H32.92V7.6475C32.425 7.58 30.715 7.445 28.735 7.445C24.5725 7.445 21.7375 9.965 21.7375 14.6225V18.6275H17.035V24.05H21.7375V38H4.5025C3.97528 38 3.46932 37.7921 3.09441 37.4215C2.71951 37.0508 2.50592 36.5472 2.5 36.02V3.98C2.5 2.8775 3.4 2 4.5025 2Z" fill="#343435"/>
</svg>
