<svg width="41" height="41" viewBox="0 0 41 41" fill="none" xmlns="http://www.w3.org/2000/svg">
<path fill-rule="evenodd" clip-rule="evenodd" d="M2.16675 5.59312C2.16675 4.78068 2.48949 4.00151 3.06398 3.42702C3.63846 2.85253 4.41764 2.52979 5.23008 2.52979H35.7667C36.1694 2.52913 36.5682 2.60789 36.9403 2.76157C37.3125 2.91524 37.6506 3.14081 37.9355 3.42535C38.2203 3.70989 38.4463 4.04783 38.6004 4.41981C38.7544 4.79178 38.8336 5.1905 38.8334 5.59312V36.1298C38.8339 36.5325 38.7549 36.9313 38.601 37.3035C38.4472 37.6756 38.2215 38.0138 37.9368 38.2986C37.6521 38.5835 37.3141 38.8094 36.942 38.9634C36.5699 39.1175 36.1711 39.1967 35.7684 39.1965H5.23008C4.82766 39.1965 4.42918 39.1172 4.05741 38.9631C3.68564 38.8091 3.34787 38.5833 3.06339 38.2986C2.77891 38.014 2.5533 37.6761 2.39945 37.3043C2.2456 36.9324 2.16653 36.5339 2.16675 36.1315V5.59312ZM16.6801 16.5098H21.6451V19.0031C22.3617 17.5698 24.1951 16.2798 26.9501 16.2798C32.2317 16.2798 33.4834 19.1348 33.4834 24.3731V34.0765H28.1384V25.5665C28.1384 22.5831 27.4217 20.8998 25.6017 20.8998C23.0767 20.8998 22.0267 22.7148 22.0267 25.5665V34.0765H16.6801V16.5098ZM7.51342 33.8481H12.8601V16.2798H7.51342V33.8481ZM13.6251 10.5498C13.6352 11.0076 13.5537 11.4628 13.3855 11.8886C13.2173 12.3145 12.9657 12.7025 12.6455 13.0298C12.3253 13.3572 11.9429 13.6172 11.5208 13.7948C11.0988 13.9724 10.6455 14.0638 10.1876 14.0638C9.72968 14.0638 9.2764 13.9724 8.85432 13.7948C8.43225 13.6172 8.0499 13.3572 7.7297 13.0298C7.4095 12.7025 7.1579 12.3145 6.98968 11.8886C6.82146 11.4628 6.74 11.0076 6.75008 10.5498C6.76987 9.65121 7.14072 8.79611 7.78322 8.1676C8.42572 7.53909 9.28879 7.18715 10.1876 7.18715C11.0864 7.18715 11.9494 7.53909 12.5919 8.1676C13.2344 8.79611 13.6053 9.65121 13.6251 10.5498Z" fill="#F5F5F5"/>
</svg>
