<svg width="41" height="41" viewBox="0 0 41 41" fill="none" xmlns="http://www.w3.org/2000/svg">
<path fill-rule="evenodd" clip-rule="evenodd" d="M2.1665 5.59312C2.1665 4.78068 2.48925 4.00151 3.06373 3.42702C3.63822 2.85253 4.41739 2.52979 5.22984 2.52979H35.7665C36.1691 2.52913 36.5679 2.60789 36.9401 2.76157C37.3122 2.91524 37.6504 3.14081 37.9352 3.42535C38.2201 3.70989 38.446 4.04783 38.6001 4.41981C38.7542 4.79178 38.8334 5.1905 38.8332 5.59312V36.1298C38.8336 36.5325 38.7546 36.9313 38.6008 37.3035C38.4469 37.6756 38.2212 38.0138 37.9365 38.2986C37.6519 38.5835 37.3138 38.8094 36.9417 38.9634C36.5697 39.1175 36.1709 39.1967 35.7682 39.1965H5.22984C4.82741 39.1965 4.42894 39.1172 4.05717 38.9631C3.6854 38.8091 3.34762 38.5833 3.06314 38.2986C2.77867 38.014 2.55306 37.6761 2.39921 37.3043C2.24536 36.9324 2.16629 36.5339 2.1665 36.1315V5.59312ZM16.6798 16.5098H21.6448V19.0031C22.3615 17.5698 24.1948 16.2798 26.9498 16.2798C32.2315 16.2798 33.4832 19.1348 33.4832 24.3731V34.0765H28.1382V25.5665C28.1382 22.5831 27.4215 20.8998 25.6015 20.8998C23.0765 20.8998 22.0265 22.7148 22.0265 25.5665V34.0765H16.6798V16.5098ZM7.51317 33.8481H12.8598V16.2798H7.51317V33.8481ZM13.6248 10.5498C13.6349 11.0076 13.5535 11.4628 13.3852 11.8886C13.217 12.3145 12.9654 12.7025 12.6452 13.0298C12.325 13.3572 11.9427 13.6172 11.5206 13.7948C11.0985 13.9724 10.6452 14.0638 10.1873 14.0638C9.72944 14.0638 9.27615 13.9724 8.85408 13.7948C8.43201 13.6172 8.04965 13.3572 7.72945 13.0298C7.40925 12.7025 7.15766 12.3145 6.98944 11.8886C6.82122 11.4628 6.73976 11.0076 6.74984 10.5498C6.76962 9.65121 7.14048 8.79611 7.78298 8.1676C8.42548 7.53909 9.28854 7.18715 10.1873 7.18715C11.0861 7.18715 11.9492 7.53909 12.5917 8.1676C13.2342 8.79611 13.6051 9.65121 13.6248 10.5498Z" fill="#343435"/>
</svg>
