<svg width="272" height="23" viewBox="0 0 272 23" fill="none" xmlns="http://www.w3.org/2000/svg">
<g clip-path="url(#clip0_65_96)">
<path d="M208.805 22.8739C208.409 21.6877 207.879 20.2011 207.213 18.4102H197.256L195.695 22.8739H187.86L196.6 0.211975H208.088L216.89 22.8739H208.805ZM205.434 13.5407C204.642 11.3556 203.831 9.1706 202.999 6.98557L202.25 4.95661C201.523 6.85096 200.452 9.71296 199.035 13.5407H205.434Z" fill="#2600F8"/>
<path d="M2.4351 17.15C2.88381 16.2702 3.31886 15.2518 3.73831 14.093C5.15663 14.9123 6.80516 15.5522 8.68389 16.0107C10.5626 16.4711 12.3126 16.6994 13.9299 16.6994C15.5472 16.6994 16.7568 16.555 17.4377 16.2643C18.1166 15.9756 18.458 15.6595 18.458 15.3201C18.458 14.1008 16.5988 13.4921 12.8823 13.4921C8.80485 13.4921 5.84726 13.0668 4.00949 12.2181C2.16977 11.3695 1.25089 9.99602 1.25089 8.09583C1.25089 5.3977 2.36876 3.40972 4.60842 2.12991C6.84613 0.85206 9.75495 0.212158 13.331 0.212158C15.4087 0.212158 17.543 0.477483 19.732 1.00618C21.9209 1.53683 23.8933 2.26062 25.653 3.17951C25.0736 4.49833 24.4649 6.10784 23.825 8.00608C23.706 8.40602 23.6045 8.70646 23.5245 8.90546C22.5062 8.08607 20.9669 7.4013 18.9087 6.85114C16.8504 6.30293 15.0302 6.02785 13.4519 6.02785C11.5537 6.02785 10.2758 6.15271 9.61448 6.40243C8.95507 6.65215 8.62537 7.01697 8.62537 7.49689C8.62537 7.97682 9.07993 8.36115 9.98906 8.64989C10.8982 8.94058 12.2112 9.08494 13.9299 9.08494C18.1673 9.08494 21.2439 9.57072 23.1636 10.5384C25.0814 11.508 26.0412 12.9907 26.0412 14.9904C26.0412 17.788 25.0229 19.8013 22.9841 21.0304C20.9454 22.2595 17.8571 22.874 13.7212 22.874C11.503 22.874 9.24381 22.6282 6.94562 22.1405C4.64744 21.6508 2.57946 20.9368 0.739746 19.9964C1.41867 18.9781 1.98443 18.028 2.43315 17.1481L2.4351 17.15Z" fill="#2600F8"/>
<path d="M46.6486 0.266602H54.3898V12.2921C54.3469 15.3511 53.3012 17.8795 51.2527 19.8772C49.2023 21.875 45.7531 22.8739 40.9051 22.8739C36.057 22.8739 32.6332 21.9218 30.8227 20.0177C29.0123 18.1136 28.1265 15.6125 28.1695 12.5106V0.266602H35.9107V12.0111C35.9107 12.9281 35.977 13.6714 36.1136 14.243C36.2482 14.8146 36.6852 15.3511 37.4246 15.8506C38.164 16.35 39.3541 16.5997 40.9987 16.5997C42.7877 16.5997 44.0987 16.3441 44.9318 15.8349C45.7648 15.3258 46.2584 14.758 46.4145 14.1337C46.5705 13.5094 46.6486 12.7076 46.6486 11.7302V0.266602Z" fill="#2600F8"/>
<path d="M70.6764 0.24319C74.8162 0.24319 77.6997 0.976736 79.3228 2.44383C80.946 3.91092 81.7576 5.97694 81.7576 8.63995C81.7576 10.4719 81.4357 12.0267 80.7899 13.3066C80.1442 14.5864 79.0107 15.5852 77.3875 16.3032C75.7644 17.0211 73.5267 17.3801 70.6764 17.3801H64.1837V22.8739H56.5049C56.6707 18.8355 56.7546 15.0604 56.7546 11.5429C56.7546 8.02541 56.6707 4.24843 56.5049 0.211975H64.1837V0.24319H70.6764ZM68.4913 11.3556C70.2179 11.3556 71.5133 11.2893 72.3776 11.1527C73.2418 11.0181 73.8447 10.7723 74.188 10.4192C74.5314 10.0661 74.7031 9.54518 74.7031 8.85845C74.7031 8.17173 74.5411 7.65669 74.2192 7.31332C73.8954 6.96996 73.3043 6.73585 72.44 6.61099C71.5757 6.48614 70.2589 6.4237 68.4913 6.4237H64.1837V11.3556H68.4913Z" fill="#2600F8"/>
<path d="M91.2817 17.1616C99.1888 17.1206 104.923 17.0055 108.483 16.8182C108.337 17.6727 108.249 18.5506 108.218 19.4559C108.186 20.3611 108.171 21.5004 108.171 22.8739H83.917C84.0828 18.8355 84.1667 15.0604 84.1667 11.5429C84.1667 8.02541 84.0828 4.24843 83.917 0.211975H108.171V5.86184H91.2837V8.85845C92.2825 8.87991 93.7594 8.88967 95.7162 8.88967C99.0249 8.88967 102.449 8.82724 105.986 8.70238V14.0713C102.449 13.9465 99.0249 13.884 95.7162 13.884C93.7594 13.884 92.2825 13.8957 91.2837 13.9152V17.1616H91.2817Z" fill="#2600F8"/>
<path d="M190.81 6.67342C187.542 6.57002 184.368 6.69488 181.29 6.67342V22.8739H173.486V6.67342C170.384 6.69488 167.221 6.57002 163.997 6.67342V0.211975H190.81V6.67342Z" fill="#2600F8"/>
<path d="M247.648 17.1479C248.097 16.268 248.532 15.2497 248.952 14.0908C250.37 14.9102 252.019 15.5501 253.897 16.0086C255.776 16.469 257.526 16.6972 259.143 16.6972C260.761 16.6972 261.972 16.5529 262.651 16.2622C263.33 15.9735 263.671 15.6574 263.671 15.3179C263.671 14.0986 261.812 13.4899 258.096 13.4899C254.018 13.4899 251.061 13.0646 249.221 12.216C247.381 11.3673 246.462 9.99389 246.462 8.09369C246.462 5.39557 247.58 3.40758 249.82 2.12777C252.058 0.847971 254.966 0.208069 258.544 0.208069C260.622 0.208069 262.756 0.473394 264.945 1.00209C267.134 1.53274 269.109 2.25654 270.866 3.17542C270.287 4.49424 269.678 6.10375 269.038 8.002C268.919 8.40193 268.818 8.70238 268.738 8.90137C267.72 8.08198 266.18 7.39721 264.122 6.84705C262.062 6.29884 260.244 6.02376 258.665 6.02376C256.767 6.02376 255.487 6.14862 254.828 6.39834C254.168 6.64806 253.839 7.01288 253.839 7.49281C253.839 7.97273 254.293 8.35706 255.202 8.64775C256.112 8.93844 257.425 9.08281 259.145 9.08281C263.383 9.08281 266.461 9.56858 268.379 10.5362C270.299 11.5058 271.257 12.9905 271.257 14.9882C271.257 17.7859 270.238 19.7992 268.199 21.0283C266.161 22.2574 263.072 22.8719 258.935 22.8719C256.716 22.8719 254.457 22.6261 252.159 22.1384C249.861 21.6487 247.791 20.9346 245.953 19.9943C246.632 18.9759 247.198 18.0258 247.647 17.146L247.648 17.1479Z" fill="#2600F8"/>
<path d="M139.378 17.1499C139.827 16.27 140.262 15.2516 140.681 14.0928C142.1 14.9122 143.748 15.5521 145.627 16.0105C147.506 16.4709 149.255 16.6992 150.873 16.6992C152.49 16.6992 153.7 16.5548 154.381 16.2641C155.059 15.9754 155.401 15.6594 155.401 15.3199C155.401 14.1006 153.542 13.4919 149.825 13.4919C145.748 13.4919 142.79 13.0666 140.952 12.2179C139.113 11.3693 138.194 9.99584 138.194 8.09564C138.194 5.39752 139.312 3.40953 141.551 2.12973C143.789 0.849926 146.698 0.211975 150.274 0.211975C152.352 0.211975 154.486 0.4773 156.675 1.006C158.864 1.53665 160.836 2.26044 162.596 3.17932C162.016 4.49815 161.408 6.10766 160.768 8.0059C160.649 8.40584 160.547 8.70628 160.467 8.90528C159.449 8.08589 157.91 7.40112 155.852 6.85096C153.793 6.30275 151.973 6.02767 150.395 6.02767C148.497 6.02767 147.219 6.15253 146.557 6.40224C145.898 6.65196 145.568 7.01678 145.568 7.49671C145.568 7.97664 146.023 8.36097 146.932 8.6497C147.841 8.94039 149.154 9.08476 150.873 9.08476C155.11 9.08476 158.187 9.57054 160.106 10.5382C162.024 11.5078 162.984 12.9905 162.984 14.9902C162.984 17.7878 161.966 19.8012 159.927 21.0302C157.888 22.2593 154.8 22.8739 150.664 22.8739C148.446 22.8739 146.187 22.628 143.888 22.1403C141.59 21.6506 139.522 20.9366 137.683 19.9963C138.362 18.9779 138.927 18.0278 139.376 17.1479L139.378 17.1499Z" fill="#2600F8"/>
<path d="M238.709 15.8233L243.787 22.8739H235.266C234.345 21.1551 232.89 18.7321 230.909 15.6009H226.299V22.8739H219.12C219.184 20.0529 219.471 14.1533 220.689 12.6628C221.186 12.0541 221.734 11.5995 222.273 11.2581C223.35 10.5772 224.606 10.2339 225.882 10.2339H230.835L230.205 12.5984L233.044 10.2339L236.276 12.5984L235.016 8.97163L238.169 6.52713H234.228L233.046 3.21641L231.863 6.52713C229.762 6.55054 227.663 6.50957 225.564 6.52127C224.528 6.52712 223.498 6.30862 222.573 5.84235C221.861 5.48533 221.092 4.93713 220.429 4.09823C219.438 2.84769 219.106 1.29866 219.013 0.122253H226.305V0.147615H232.732C236.955 0.147615 239.897 0.830438 241.565 2.18633C243.241 3.54222 244.072 5.38389 244.072 7.70158C244.072 9.51789 243.629 11.0552 242.742 12.3116C241.854 13.5602 240.334 14.4732 238.188 15.0312C238.434 15.3687 238.616 15.6321 238.715 15.8213L238.709 15.8233Z" fill="#2600F8"/>
<path d="M130.256 15.8233L135.334 22.8739H126.812C125.891 21.1551 124.436 18.7321 122.456 15.6009H117.846V22.8739H110.666C110.731 20.0529 111.018 14.1533 112.235 12.6628C112.732 12.0541 113.281 11.5995 113.819 11.2581C114.896 10.5772 116.152 10.2339 117.428 10.2339H122.382L121.752 12.5984L124.59 10.2339L127.823 12.5984L126.562 8.97163L129.715 6.52713H125.774L124.592 3.21641L123.41 6.52713C121.309 6.55054 119.209 6.50957 117.11 6.52127C116.074 6.52712 115.044 6.30862 114.12 5.84235C113.407 5.48533 112.639 4.93713 111.975 4.09823C110.984 2.84769 110.653 1.29866 110.559 0.122253H117.852V0.147615H124.278C128.502 0.147615 131.444 0.830438 133.112 2.18633C134.788 3.54222 135.619 5.38389 135.619 7.70158C135.619 9.51789 135.176 11.0552 134.288 12.3116C133.4 13.5602 131.881 14.4732 129.735 15.0312C129.98 15.3687 130.162 15.6321 130.261 15.8213L130.256 15.8233Z" fill="#2600F8"/>
</g>
<defs>
<clipPath id="clip0_65_96">
<rect width="270.517" height="22.7477" fill="white" transform="translate(0.741699 0.12616)"/>
</clipPath>
</defs>
</svg>
