<svg width="272" height="24" viewBox="0 0 272 24" fill="none" xmlns="http://www.w3.org/2000/svg">
<g clip-path="url(#clip0_340_756)">
<path d="M208.805 23.3738C208.409 22.1876 207.879 20.701 207.213 18.9101H197.256L195.695 23.3738H187.86L196.6 0.711914H208.088L216.89 23.3738H208.805ZM205.434 14.0406C204.642 11.8556 203.831 9.67054 202.999 7.48551L202.25 5.45655C201.523 7.3509 200.452 10.2129 199.035 14.0406H205.434Z" fill="#FB7300"/>
<path d="M2.4351 17.6498C2.88381 16.7699 3.31886 15.7516 3.73831 14.5927C5.15663 15.4121 6.80516 16.052 8.68389 16.5105C10.5626 16.9709 12.3126 17.1991 13.9299 17.1991C15.5472 17.1991 16.7568 17.0548 17.4377 16.7641C18.1166 16.4753 18.458 16.1593 18.458 15.8198C18.458 14.6005 16.5988 13.9918 12.8823 13.9918C8.80485 13.9918 5.84726 13.5665 4.00949 12.7179C2.16977 11.8692 1.25089 10.4958 1.25089 8.59558C1.25089 5.89746 2.36876 3.90947 4.60842 2.62967C6.84613 1.35182 9.75495 0.711914 13.331 0.711914C15.4087 0.711914 17.543 0.977239 19.732 1.50594C21.9209 2.03659 23.8933 2.76038 25.653 3.67926C25.0736 4.99809 24.4649 6.6076 23.825 8.50584C23.706 8.90578 23.6045 9.20622 23.5245 9.40522C22.5062 8.58583 20.9669 7.90106 18.9087 7.3509C16.8504 6.80269 15.0302 6.52761 13.4519 6.52761C11.5537 6.52761 10.2758 6.65247 9.61448 6.90218C8.95507 7.1519 8.62537 7.51672 8.62537 7.99665C8.62537 8.47658 9.07993 8.86091 9.98906 9.14964C10.8982 9.44033 12.2112 9.5847 13.9299 9.5847C18.1673 9.5847 21.2439 10.0705 23.1636 11.0381C25.0814 12.0077 26.0412 13.4904 26.0412 15.4901C26.0412 18.2878 25.0229 20.3011 22.9841 21.5302C20.9454 22.7593 17.8571 23.3738 13.7212 23.3738C11.503 23.3738 9.24381 23.128 6.94562 22.6403C4.64744 22.1506 2.57946 21.4365 0.739746 20.4962C1.41867 19.4778 1.98443 18.5277 2.43315 17.6479L2.4351 17.6498Z" fill="#FB7300"/>
<path d="M46.6486 0.766602H54.3898V12.7921C54.3469 15.8511 53.3012 18.3795 51.2527 20.3772C49.2023 22.375 45.7531 23.3739 40.9051 23.3739C36.057 23.3739 32.6332 22.4218 30.8227 20.5177C29.0123 18.6136 28.1265 16.1125 28.1695 13.0106V0.766602H35.9107V12.5111C35.9107 13.4281 35.977 14.1714 36.1136 14.743C36.2482 15.3146 36.6852 15.8511 37.4246 16.3506C38.164 16.85 39.3541 17.0997 40.9987 17.0997C42.7877 17.0997 44.0987 16.8441 44.9318 16.3349C45.7648 15.8258 46.2584 15.258 46.4145 14.6337C46.5705 14.0094 46.6486 13.2076 46.6486 12.2302V0.766602Z" fill="#FB7300"/>
<path d="M70.6764 0.743129C74.8162 0.743129 77.6997 1.47667 79.3228 2.94377C80.946 4.41086 81.7576 6.47688 81.7576 9.13989C81.7576 10.9718 81.4357 12.5267 80.7899 13.8065C80.1442 15.0863 79.0107 16.0852 77.3875 16.8031C75.7644 17.521 73.5267 17.88 70.6764 17.88H64.1837V23.3738H56.5049C56.6707 19.3354 56.7546 15.5604 56.7546 12.0429C56.7546 8.52535 56.6707 4.74837 56.5049 0.711914H64.1837V0.743129H70.6764ZM68.4913 11.8556C70.2179 11.8556 71.5133 11.7892 72.3776 11.6527C73.2418 11.5181 73.8447 11.2722 74.188 10.9191C74.5314 10.566 74.7031 10.0451 74.7031 9.35839C74.7031 8.67167 74.5411 8.15663 74.2192 7.81326C73.8954 7.4699 73.3043 7.23579 72.44 7.11093C71.5757 6.98607 70.2589 6.92364 68.4913 6.92364H64.1837V11.8556H68.4913Z" fill="#FB7300"/>
<path d="M91.2817 17.6615C99.1888 17.6205 104.923 17.5054 108.483 17.3181C108.337 18.1726 108.249 19.0506 108.218 19.9558C108.186 20.861 108.171 22.0004 108.171 23.3738H83.917C84.0828 19.3354 84.1667 15.5604 84.1667 12.0429C84.1667 8.52535 84.0828 4.74837 83.917 0.711914H108.171V6.36178H91.2837V9.35839C92.2825 9.37985 93.7594 9.38961 95.7162 9.38961C99.0249 9.38961 102.449 9.32718 105.986 9.20232V14.5713C102.449 14.4464 99.0249 14.384 95.7162 14.384C93.7594 14.384 92.2825 14.3957 91.2837 14.4152V17.6615H91.2817Z" fill="#FB7300"/>
<path d="M190.811 7.17336C187.543 7.06996 184.369 7.19482 181.29 7.17336V23.3738H173.486V7.17336C170.384 7.19482 167.222 7.06996 163.997 7.17336V0.711914H190.811V7.17336Z" fill="#FB7300"/>
<path d="M247.648 17.6478C248.097 16.768 248.532 15.7496 248.952 14.5908C250.37 15.4101 252.019 16.05 253.897 16.5085C255.776 16.9689 257.526 17.1972 259.143 17.1972C260.761 17.1972 261.972 17.0528 262.651 16.7621C263.33 16.4734 263.671 16.1573 263.671 15.8179C263.671 14.5986 261.812 13.9899 258.096 13.9899C254.018 13.9899 251.061 13.5646 249.221 12.7159C247.381 11.8673 246.462 10.4938 246.462 8.59363C246.462 5.8955 247.58 3.90752 249.82 2.62771C252.058 1.34791 254.966 0.708008 258.544 0.708008C260.622 0.708008 262.756 0.973333 264.945 1.50203C267.134 2.03268 269.109 2.75647 270.866 3.67536C270.287 4.99418 269.678 6.60369 269.038 8.50193C268.919 8.90187 268.818 9.20231 268.738 9.40131C267.72 8.58192 266.18 7.89715 264.122 7.34699C262.062 6.79878 260.244 6.5237 258.665 6.5237C256.767 6.5237 255.487 6.64856 254.828 6.89828C254.168 7.148 253.839 7.51282 253.839 7.99274C253.839 8.47267 254.293 8.857 255.202 9.14769C256.112 9.43838 257.425 9.58274 259.145 9.58274C263.383 9.58274 266.461 10.0685 268.379 11.0362C270.299 12.0058 271.257 13.4904 271.257 15.4882C271.257 18.2858 270.238 20.2991 268.199 21.5282C266.161 22.7573 263.072 23.3718 258.935 23.3718C256.716 23.3718 254.457 23.126 252.159 22.6383C249.861 22.1486 247.791 21.4346 245.953 20.4942C246.632 19.4759 247.198 18.5258 247.647 17.6459L247.648 17.6478Z" fill="#FB7300"/>
<path d="M139.378 17.6498C139.827 16.7699 140.262 15.7516 140.681 14.5927C142.1 15.4121 143.748 16.052 145.627 16.5105C147.506 16.9709 149.255 17.1991 150.873 17.1991C152.49 17.1991 153.7 17.0548 154.381 16.7641C155.059 16.4753 155.401 16.1593 155.401 15.8198C155.401 14.6005 153.542 13.9918 149.825 13.9918C145.748 13.9918 142.79 13.5665 140.952 12.7179C139.113 11.8692 138.194 10.4958 138.194 8.59558C138.194 5.89746 139.312 3.90947 141.551 2.62967C143.789 1.34987 146.698 0.711914 150.274 0.711914C152.352 0.711914 154.486 0.977239 156.675 1.50594C158.864 2.03659 160.836 2.76038 162.596 3.67926C162.016 4.99809 161.408 6.6076 160.768 8.50584C160.649 8.90578 160.547 9.20622 160.467 9.40522C159.449 8.58583 157.91 7.90106 155.852 7.3509C153.793 6.80269 151.973 6.52761 150.395 6.52761C148.497 6.52761 147.219 6.65247 146.557 6.90218C145.898 7.1519 145.568 7.51672 145.568 7.99665C145.568 8.47658 146.023 8.86091 146.932 9.14964C147.841 9.44033 149.154 9.5847 150.873 9.5847C155.11 9.5847 158.187 10.0705 160.106 11.0381C162.024 12.0077 162.984 13.4904 162.984 15.4901C162.984 18.2878 161.966 20.3011 159.927 21.5302C157.888 22.7593 154.8 23.3738 150.664 23.3738C148.446 23.3738 146.187 23.128 143.888 22.6403C141.59 22.1506 139.522 21.4365 137.683 20.4962C138.362 19.4778 138.927 18.5277 139.376 17.6479L139.378 17.6498Z" fill="#FB7300"/>
<path d="M238.709 16.3231L243.787 23.3737H235.266C234.345 21.6549 232.89 19.2319 230.909 16.1007H226.299V23.3737H219.12C219.184 20.5527 219.471 14.6531 220.689 13.1626C221.186 12.5539 221.734 12.0993 222.273 11.7579C223.35 11.0771 224.606 10.7337 225.882 10.7337H230.835L230.205 13.0982L233.044 10.7337L236.276 13.0982L235.016 9.47145L238.169 7.02694H234.228L233.046 3.71623L231.863 7.02694C229.762 7.05035 227.663 7.00938 225.564 7.02109C224.528 7.02694 223.498 6.80844 222.573 6.34217C221.861 5.98515 221.092 5.43694 220.429 4.59805C219.438 3.34751 219.106 1.79848 219.013 0.62207H226.305V0.647432H232.732C236.955 0.647432 239.897 1.33025 241.565 2.68614C243.241 4.04203 244.072 5.8837 244.072 8.2014C244.072 10.0177 243.629 11.555 242.742 12.8114C241.854 14.06 240.334 14.973 238.188 15.531C238.434 15.8685 238.616 16.1319 238.715 16.3211L238.709 16.3231Z" fill="#FB7300"/>
<path d="M130.255 16.3231L135.333 23.3737H126.812C125.891 21.6549 124.435 19.2319 122.455 16.1007H117.845V23.3737H110.666C110.73 20.5527 111.017 14.6531 112.234 13.1626C112.732 12.5539 113.28 12.0993 113.819 11.7579C114.895 11.0771 116.152 10.7337 117.428 10.7337H122.381L121.751 13.0982L124.59 10.7337L127.822 13.0982L126.562 9.47145L129.715 7.02694H125.774L124.592 3.71623L123.409 7.02694C121.308 7.05035 119.209 7.00938 117.11 7.02109C116.074 7.02694 115.044 6.80844 114.119 6.34217C113.407 5.98515 112.638 5.43694 111.975 4.59805C110.984 3.34751 110.652 1.79848 110.559 0.62207H117.851V0.647432H124.277C128.501 0.647432 131.443 1.33025 133.111 2.68614C134.787 4.04203 135.618 5.8837 135.618 8.2014C135.618 10.0177 135.175 11.555 134.288 12.8114C133.4 14.06 131.88 14.973 129.734 15.531C129.98 15.8685 130.161 16.1319 130.261 16.3211L130.255 16.3231Z" fill="#FB7300"/>
</g>
<defs>
<clipPath id="clip0_340_756">
<rect width="270.517" height="22.7477" fill="white" transform="translate(0.741699 0.625977)"/>
</clipPath>
</defs>
</svg>
