<svg width="68" height="68" viewBox="0 0 68 68" fill="none" xmlns="http://www.w3.org/2000/svg">
<path d="M14.075 17H30.7417C31.6258 17 32.4736 17.3512 33.0987 17.9763C33.7238 18.6014 34.075 19.4493 34.075 20.3333C34.075 21.2174 33.7238 22.0652 33.0987 22.6904C32.4736 23.3155 31.6258 23.6667 30.7417 23.6667H14.075C13.191 23.6667 12.3431 23.3155 11.718 22.6904C11.0929 22.0652 10.7417 21.2174 10.7417 20.3333C10.7417 19.4493 11.0929 18.6014 11.718 17.9763C12.3431 17.3512 13.191 17 14.075 17ZM37.4084 43.6667H54.075C54.9591 43.6667 55.8069 44.0179 56.4321 44.643C57.0572 45.2681 57.4084 46.1159 57.4084 47C57.4084 47.8841 57.0572 48.7319 56.4321 49.357C55.8069 49.9821 54.9591 50.3333 54.075 50.3333H37.4084C36.5243 50.3333 35.6765 49.9821 35.0513 49.357C34.4262 48.7319 34.075 47.8841 34.075 47C34.075 46.1159 34.4262 45.2681 35.0513 44.643C35.6765 44.0179 36.5243 43.6667 37.4084 43.6667ZM14.075 30.3333H54.075C54.9591 30.3333 55.8069 30.6845 56.4321 31.3096C57.0572 31.9348 57.4084 32.7826 57.4084 33.6667C57.4084 34.5507 57.0572 35.3986 56.4321 36.0237C55.8069 36.6488 54.9591 37 54.075 37H14.075C13.191 37 12.3431 36.6488 11.718 36.0237C11.0929 35.3986 10.7417 34.5507 10.7417 33.6667C10.7417 32.7826 11.0929 31.9348 11.718 31.3096C12.3431 30.6845 13.191 30.3333 14.075 30.3333Z" fill="#2600F8"/>
</svg>
