<svg width="40" height="40" viewBox="0 0 40 40" fill="none" xmlns="http://www.w3.org/2000/svg">
<path d="M8.27939 10H18.0833C18.6033 10 19.1021 10.2066 19.4698 10.5743C19.8375 10.942 20.0441 11.4408 20.0441 11.9608C20.0441 12.4808 19.8375 12.9795 19.4698 13.3473C19.1021 13.715 18.6033 13.9216 18.0833 13.9216H8.27939C7.75936 13.9216 7.26062 13.715 6.8929 13.3473C6.52519 12.9795 6.3186 12.4808 6.3186 11.9608C6.3186 11.4408 6.52519 10.942 6.8929 10.5743C7.26062 10.2066 7.75936 10 8.27939 10ZM22.0049 25.6863H31.8088C32.3288 25.6863 32.8276 25.8929 33.1953 26.2606C33.563 26.6283 33.7696 27.127 33.7696 27.6471C33.7696 28.1671 33.563 28.6658 33.1953 29.0335C32.8276 29.4013 32.3288 29.6078 31.8088 29.6078H22.0049C21.4848 29.6078 20.9861 29.4013 20.6184 29.0335C20.2507 28.6658 20.0441 28.1671 20.0441 27.6471C20.0441 27.127 20.2507 26.6283 20.6184 26.2606C20.9861 25.8929 21.4848 25.6863 22.0049 25.6863ZM8.27939 17.8431H31.8088C32.3288 17.8431 32.8276 18.0497 33.1953 18.4174C33.563 18.7852 33.7696 19.2839 33.7696 19.8039C33.7696 20.324 33.563 20.8227 33.1953 21.1904C32.8276 21.5581 32.3288 21.7647 31.8088 21.7647H8.27939C7.75936 21.7647 7.26062 21.5581 6.8929 21.1904C6.52519 20.8227 6.3186 20.324 6.3186 19.8039C6.3186 19.2839 6.52519 18.7852 6.8929 18.4174C7.26062 18.0497 7.75936 17.8431 8.27939 17.8431Z" fill="#2600F8"/>
</svg>
