<svg width="477" height="507" viewBox="0 0 477 507" fill="none" xmlns="http://www.w3.org/2000/svg">
<path d="M475.243 -2.07735e-05C476.337 5.95674 476.894 12.1121 478.624 17.8703C485.127 39.3543 491.61 60.8781 499.008 82.0643C501.534 89.272 502.071 95.1096 498.77 102.218C471.047 162.044 425.903 204.674 368.25 235.054C357.074 240.951 345.639 246.332 334.323 251.971C334.104 252.09 334.005 252.467 333.169 253.897C354.468 265.016 375.728 276.116 398.439 287.97C444.935 241.626 491.511 195.144 538.942 147.847C589.137 206.164 650.986 240.951 726 252.845C585.259 281.874 501.474 366.401 472.896 507C472.32 504.22 471.643 501.44 471.226 498.641C467.507 473.185 461.103 448.425 449.788 425.253C446.128 417.768 446.526 411.533 449.807 404.286C475.263 348.352 512.571 302.067 562.21 265.711C566.684 262.435 571.159 259.139 575.594 255.823C576.031 255.486 576.23 254.791 577.403 252.726C564.874 243.195 552.166 233.485 538.763 223.259C493.44 268.69 448.654 313.584 403.908 358.438C400.408 356.532 398.359 355.817 396.808 354.507C350.471 315.014 295.384 294.105 237.234 279.968C183.359 266.883 128.531 260.37 73.2443 257.511C51.6668 256.399 30.0495 256.042 8.47191 255.247C5.64794 255.148 2.82396 254.632 -1.10461e-05 254.294C0.0397632 253.381 0.0994246 252.468 0.139199 251.554C3.9973 251.554 7.83552 251.594 11.6737 251.554C89.9694 250.601 167.688 244.227 243.916 225.225C285.758 214.801 325.91 200.088 362.801 177.273C425.784 138.356 460.686 81.5282 471.166 8.95497C471.584 6.01631 472.141 3.07762 472.638 0.138956C473.513 0.099253 474.408 0.0595496 475.283 -2.07753e-05" fill="#FB7300"/>
</svg>
