<svg width="65" height="178" viewBox="0 0 65 178" fill="none" xmlns="http://www.w3.org/2000/svg">
<path d="M127.5 118.483C126.008 118.756 124.466 118.895 123.024 119.326C117.642 120.948 112.25 122.564 106.943 124.408C105.138 125.038 103.676 125.172 101.895 124.349C86.9091 117.437 76.2305 106.182 68.6206 91.8089C67.1434 89.0225 65.7955 86.1716 64.383 83.3504C64.3531 83.2959 64.2586 83.2711 63.9005 83.0629C61.1152 88.373 58.3349 93.6732 55.3656 99.3353C66.9743 110.927 78.6179 122.539 90.4654 134.364C75.8574 146.878 67.1434 162.298 64.1641 181C56.8925 145.912 35.7192 125.023 0.5 117.898C1.19633 117.755 1.89265 117.586 2.59395 117.482C8.97031 116.555 15.1726 114.958 20.977 112.137C22.8521 111.225 24.4138 111.324 26.2293 112.142C40.2403 118.488 51.8342 127.79 60.9411 140.165C61.7618 141.281 62.5875 142.396 63.4181 143.502C63.5026 143.611 63.6767 143.661 64.194 143.953C66.5814 140.83 69.0135 137.661 71.575 134.32C60.1951 123.02 48.9494 111.854 37.7137 100.699C38.1912 99.8262 38.3702 99.3155 38.6985 98.9287C48.5913 87.3764 53.8287 73.6425 57.37 59.145C60.6477 45.7136 62.2791 32.0441 62.9953 18.2606C63.2738 12.8811 63.3634 7.49167 63.5623 2.11215C63.5872 1.4081 63.7165 0.704049 63.801 0C64.0298 0.00991618 64.2586 0.0247904 64.4874 0.0347066C64.4874 0.996576 64.4775 1.95349 64.4874 2.9104C64.7262 22.4304 66.3227 41.8066 71.0826 60.811C73.6939 71.2428 77.3794 81.2532 83.0943 90.4504C92.8428 106.153 107.078 114.854 125.257 117.467C125.993 117.571 126.729 117.71 127.465 117.834C127.475 118.052 127.485 118.275 127.5 118.493" fill="white"/>
</svg>
