<svg width="248" height="178" viewBox="0 0 248 178" fill="none" xmlns="http://www.w3.org/2000/svg">
<path d="M124 116.52C122.543 116.788 121.038 116.924 119.629 117.349C114.375 118.943 109.111 120.533 103.929 122.346C102.166 122.966 100.738 123.097 98.9999 122.288C84.368 115.491 73.9416 104.423 66.5115 90.2872C65.0692 87.547 63.7531 84.7433 62.3739 81.9689C62.3448 81.9153 62.2525 81.8909 61.9029 81.6861C59.1834 86.9082 56.4687 92.1206 53.5695 97.6889C64.9041 109.089 76.2726 120.508 87.8402 132.137C73.5774 144.444 65.0692 159.608 62.1603 178C55.0604 143.493 34.3872 122.951 0 115.944C0.679878 115.803 1.35976 115.637 2.04449 115.535C8.27023 114.623 14.326 113.053 19.9933 110.278C21.8241 109.381 23.3489 109.479 25.1215 110.283C38.8016 116.525 50.1216 125.672 59.0134 137.842C59.8147 138.939 60.6208 140.036 61.4318 141.124C61.5144 141.231 61.6843 141.28 62.1894 141.567C64.5204 138.495 66.8951 135.38 69.3961 132.093C58.285 120.981 47.3049 110.001 36.3346 99.0297C36.8008 98.1716 36.9756 97.6694 37.2962 97.289C46.9553 85.9282 52.0689 72.4219 55.5266 58.1647C58.7269 44.9559 60.3197 31.513 61.019 17.958C61.291 12.6676 61.3784 7.3675 61.5727 2.07714C61.5969 1.38476 61.7232 0.692379 61.8057 0C62.0291 0.00975182 62.2525 0.0243796 62.4759 0.0341314C62.4759 0.980058 62.4662 1.92111 62.4759 2.86216C62.709 22.0586 64.2679 41.1137 68.9153 59.803C71.4649 70.062 75.0634 79.9064 80.6432 88.9512C90.1615 104.393 104.06 112.95 121.81 115.52C122.529 115.622 123.247 115.759 123.966 115.881C123.976 116.095 123.985 116.315 124 116.529" fill="#FB7300"/>
<path d="M248 116.52C246.543 116.788 245.038 116.924 243.629 117.349C238.375 118.943 233.111 120.533 227.929 122.346C226.166 122.966 224.738 123.097 223 122.288C208.368 115.491 197.942 104.423 190.511 90.2872C189.069 87.547 187.753 84.7433 186.374 81.9689C186.345 81.9153 186.253 81.8909 185.903 81.6861C183.183 86.9082 180.469 92.1206 177.57 97.6889C188.904 109.089 200.273 120.508 211.84 132.137C197.577 144.444 189.069 159.608 186.16 178C179.06 143.493 158.387 122.951 124 115.944C124.68 115.803 125.36 115.637 126.044 115.535C132.27 114.623 138.326 113.053 143.993 110.278C145.824 109.381 147.349 109.479 149.121 110.283C162.802 116.525 174.122 125.672 183.013 137.842C183.815 138.939 184.621 140.036 185.432 141.124C185.514 141.231 185.684 141.28 186.189 141.567C188.52 138.495 190.895 135.38 193.396 132.093C182.285 120.981 171.305 110.001 160.335 99.0297C160.801 98.1716 160.976 97.6694 161.296 97.289C170.955 85.9282 176.069 72.4219 179.527 58.1647C182.727 44.9559 184.32 31.513 185.019 17.958C185.291 12.6676 185.378 7.3675 185.573 2.07714C185.597 1.38476 185.723 0.692379 185.806 0C186.029 0.00975182 186.253 0.0243796 186.476 0.0341314C186.476 0.980058 186.466 1.92111 186.476 2.86216C186.709 22.0586 188.268 41.1137 192.915 59.803C195.465 70.062 199.063 79.9064 204.643 88.9512C214.162 104.393 228.06 112.95 245.81 115.52C246.529 115.622 247.247 115.759 247.966 115.881C247.976 116.095 247.985 116.315 248 116.529" fill="#2600F8"/>
</svg>
