<svg width="256" height="726" viewBox="0 0 256 726" fill="none" xmlns="http://www.w3.org/2000/svg">
<path d="M256 475.243C250.043 476.337 243.888 476.894 238.13 478.624C216.646 485.127 195.122 491.61 173.936 499.008C166.728 501.534 160.89 502.071 153.782 498.77C93.9562 471.047 51.3256 425.903 20.9461 368.25C15.049 357.074 9.66797 345.639 4.0289 334.323C3.90976 334.104 3.53252 334.005 2.10289 333.169C-9.0164 354.468 -20.1159 375.728 -31.9698 398.439C14.3738 444.935 60.8564 491.511 108.153 538.942C49.8364 589.137 15.0489 650.986 3.15524 726C-25.8741 585.259 -110.401 501.474 -251 472.896C-248.22 472.32 -245.44 471.643 -242.641 471.226C-217.185 467.507 -192.425 461.103 -169.253 449.788C-161.768 446.128 -155.533 446.526 -148.286 449.807C-92.3515 475.263 -46.0675 512.571 -9.71138 562.21C-6.43517 566.684 -3.13907 571.159 0.176865 575.594C0.51442 576.031 1.20935 576.23 3.27437 577.403C12.8052 564.874 22.5147 552.167 32.7405 538.763C-12.6898 493.44 -57.5839 448.654 -102.438 403.908C-100.532 400.408 -99.8173 398.359 -98.5069 396.808C-59.0135 350.471 -38.1053 295.384 -23.9679 237.234C-10.8829 183.359 -4.37013 128.531 -1.51088 73.2443C-0.398956 51.6668 -0.0415497 30.0495 0.752686 8.47192C0.851959 5.64795 1.36819 2.82397 1.70575 0C2.61913 0.0397743 3.53249 0.0994357 4.44586 0.13921C4.44586 3.99732 4.40614 7.83553 4.44586 11.6738C5.39896 89.9694 11.7727 167.688 30.7748 243.916C41.1991 285.758 55.9123 325.91 78.7267 362.801C117.644 425.784 174.472 460.686 247.045 471.166C249.984 471.584 252.922 472.141 255.861 472.638C255.901 473.513 255.94 474.408 256 475.283" fill="#2600F8"/>
</svg>
