<svg width="255" height="726" viewBox="0 0 255 726" fill="none" xmlns="http://www.w3.org/2000/svg">
<path d="M507 475.243C501.043 476.337 494.888 476.894 489.13 478.624C467.646 485.127 446.122 491.61 424.936 499.008C417.728 501.534 411.89 502.071 404.782 498.77C344.956 471.047 302.326 425.903 271.946 368.25C266.049 357.074 260.668 345.639 255.029 334.323C254.91 334.104 254.533 334.005 253.103 333.169C241.984 354.468 230.884 375.728 219.03 398.439C265.374 444.935 311.856 491.511 359.153 538.942C300.836 589.137 266.049 650.986 254.155 726C225.126 585.259 140.599 501.474 0 472.896C2.77982 472.32 5.55965 471.643 8.35932 471.226C33.8146 467.507 58.5748 461.103 81.7467 449.788C89.2323 446.128 95.4671 446.526 102.714 449.807C158.648 475.263 204.933 512.571 241.289 562.21C244.565 566.684 247.861 571.159 251.177 575.594C251.514 576.031 252.209 576.23 254.274 577.403C263.805 564.874 273.515 552.167 283.74 538.763C238.31 493.44 193.416 448.654 148.562 403.908C150.468 400.408 151.183 398.359 152.493 396.808C191.986 350.471 212.895 295.384 227.032 237.234C240.117 183.359 246.63 128.531 249.489 73.2443C250.601 51.6668 250.958 30.0495 251.753 8.47192C251.852 5.64795 252.368 2.82397 252.706 0C253.619 0.0397743 254.532 0.0994357 255.446 0.13921C255.446 3.99732 255.406 7.83553 255.446 11.6738C256.399 89.9694 262.773 167.688 281.775 243.916C292.199 285.758 306.912 325.91 329.727 362.801C368.644 425.784 425.472 460.686 498.045 471.166C500.984 471.584 503.922 472.141 506.861 472.638C506.901 473.513 506.94 474.408 507 475.283" fill="#2600F8"/>
</svg>
