<svg width="64" height="178" viewBox="0 0 64 178" fill="none" xmlns="http://www.w3.org/2000/svg">
<path d="M63.5 118.483C62.0079 118.756 60.466 118.895 59.0236 119.326C53.642 120.948 48.2505 122.564 42.9434 124.408C41.138 125.038 39.6757 125.172 37.8951 124.349C22.9091 117.437 12.2305 106.182 4.62063 91.8089C3.14342 89.0225 1.79553 86.1716 0.38298 83.3504C0.353138 83.2959 0.258636 83.2711 -0.099472 83.0629C-2.88478 88.373 -5.66512 93.6732 -8.63445 99.3353C2.97431 110.927 14.6179 122.539 26.4654 134.364C11.8574 146.878 3.14342 162.298 0.164135 181C-7.1075 145.912 -28.2808 125.023 -63.5 117.898C-62.8037 117.755 -62.1073 117.586 -61.406 117.482C-55.0297 116.555 -48.8274 114.958 -43.023 112.137C-41.1479 111.225 -39.5862 111.324 -37.7707 112.142C-23.7597 118.488 -12.1658 127.79 -3.05886 140.165C-2.23819 141.281 -1.41255 142.396 -0.581928 143.502C-0.497375 143.611 -0.323296 143.661 0.193977 143.953C2.58138 140.83 5.01355 137.661 7.57504 134.32C-3.80493 123.02 -15.0506 111.854 -26.2863 100.699C-25.8088 99.8262 -25.6298 99.3155 -25.3015 98.9287C-15.4087 87.3764 -10.1713 73.6425 -6.63002 59.145C-3.35231 45.7136 -1.72092 32.0441 -1.0047 18.2606C-0.726166 12.8811 -0.636639 7.49167 -0.437691 2.11215C-0.412819 1.4081 -0.283504 0.704049 -0.198952 0C0.0298424 0.00991618 0.258633 0.0247904 0.487427 0.0347066C0.487427 0.996576 0.477478 1.95349 0.487427 2.9104C0.726166 22.4304 2.32275 41.8066 7.08263 60.811C9.69386 71.2428 13.3794 81.2532 19.0943 90.4504C28.8428 106.153 43.0777 114.854 61.2568 117.467C61.993 117.571 62.7291 117.71 63.4652 117.834C63.4751 118.052 63.4851 118.275 63.5 118.493" fill="white"/>
</svg>
