<svg width="902" height="1293" viewBox="0 0 902 1293" fill="none" xmlns="http://www.w3.org/2000/svg">
<path d="M902 846.613C891.402 848.559 880.451 849.55 870.207 852.629C831.985 864.202 793.692 875.74 756 888.905C743.177 893.4 732.791 894.356 720.145 888.481C613.709 839.145 537.865 758.806 483.817 656.207C473.326 636.317 463.753 615.967 453.72 595.829C453.508 595.44 452.837 595.263 450.293 593.776C430.511 631.68 410.764 669.514 389.675 709.931C472.125 792.676 554.822 875.563 638.967 959.971C535.216 1049.3 473.326 1159.37 452.166 1292.86C400.52 1042.4 250.139 893.294 0 842.436C4.94556 841.41 9.89113 840.207 14.872 839.464C60.1592 832.845 104.21 821.449 145.435 801.312C158.753 794.799 169.845 795.507 182.739 801.347C282.25 846.648 364.594 913.042 429.275 1001.38C435.104 1009.34 440.968 1017.31 446.867 1025.2C447.467 1025.98 448.704 1026.33 452.378 1028.42C469.334 1006.12 486.608 983.507 504.801 959.653C423.976 878.996 344.105 799.294 264.305 719.663C267.696 713.435 268.968 709.789 271.299 707.029C341.562 624.567 378.759 526.532 403.911 423.048C427.191 327.172 438.777 229.598 443.864 131.21C445.842 92.8102 446.478 54.3398 447.891 15.94C448.068 10.9145 448.986 5.88887 449.587 0.863281C451.212 0.934064 452.837 1.04024 454.462 1.11102C454.462 7.97696 454.391 14.8075 454.462 21.6381C456.158 160.974 467.497 299.284 501.303 434.939C519.849 509.403 546.025 580.858 586.614 646.509C655.852 758.594 756.954 820.706 886.068 839.357C891.296 840.101 896.525 841.091 901.753 841.976C901.823 843.534 901.894 845.126 902 846.683" fill="#2600F8"/>
</svg>
