<svg width="50" height="50" viewBox="0 0 50 50" fill="none" xmlns="http://www.w3.org/2000/svg">
<rect x="0.5" y="0.5" width="49" height="49" rx="4.5" fill="white" fill-opacity="0.4"/>
<rect x="0.5" y="0.5" width="49" height="49" rx="4.5" stroke="#FB7300"/>
<path d="M24.0625 14.6875V11.875C24.0625 11.6264 24.1613 11.3879 24.3371 11.2121C24.5129 11.0363 24.7514 10.9375 25 10.9375C25.2486 10.9375 25.4871 11.0363 25.6629 11.2121C25.8387 11.3879 25.9375 11.6264 25.9375 11.875V14.6875C25.9375 14.9361 25.8387 15.1746 25.6629 15.3504C25.4871 15.5262 25.2486 15.625 25 15.625C24.7514 15.625 24.5129 15.5262 24.3371 15.3504C24.1613 15.1746 24.0625 14.9361 24.0625 14.6875ZM32.5 25C32.5 26.4834 32.0601 27.9334 31.236 29.1668C30.4119 30.4001 29.2406 31.3614 27.8701 31.9291C26.4997 32.4968 24.9917 32.6453 23.5368 32.3559C22.082 32.0665 20.7456 31.3522 19.6967 30.3033C18.6478 29.2544 17.9335 27.918 17.6441 26.4632C17.3547 25.0083 17.5032 23.5003 18.0709 22.1299C18.6386 20.7594 19.5999 19.5881 20.8332 18.764C22.0666 17.9399 23.5166 17.5 25 17.5C26.9885 17.5022 28.8949 18.293 30.3009 19.6991C31.707 21.1052 32.4978 23.0115 32.5 25ZM30.625 25C30.625 23.8875 30.2951 22.7999 29.677 21.8749C29.0589 20.9499 28.1804 20.2289 27.1526 19.8032C26.1248 19.3774 24.9938 19.266 23.9026 19.4831C22.8115 19.7001 21.8092 20.2359 21.0225 21.0225C20.2359 21.8092 19.7001 22.8115 19.4831 23.9026C19.266 24.9938 19.3774 26.1248 19.8032 27.1526C20.2289 28.1804 20.9499 29.0589 21.8749 29.677C22.7999 30.2951 23.8875 30.625 25 30.625C26.4914 30.6234 27.9212 30.0303 28.9758 28.9758C30.0303 27.9212 30.6234 26.4914 30.625 25ZM16.8367 18.1633C17.0126 18.3392 17.2512 18.438 17.5 18.438C17.7488 18.438 17.9874 18.3392 18.1633 18.1633C18.3392 17.9874 18.438 17.7488 18.438 17.5C18.438 17.2512 18.3392 17.0126 18.1633 16.8367L16.2883 14.9617C16.1124 14.7858 15.8738 14.687 15.625 14.687C15.3762 14.687 15.1376 14.7858 14.9617 14.9617C14.7858 15.1376 14.687 15.3762 14.687 15.625C14.687 15.8738 14.7858 16.1124 14.9617 16.2883L16.8367 18.1633ZM16.8367 31.8367L14.9617 33.7117C14.7858 33.8876 14.687 34.1262 14.687 34.375C14.687 34.6238 14.7858 34.8624 14.9617 35.0383C15.1376 35.2142 15.3762 35.313 15.625 35.313C15.8738 35.313 16.1124 35.2142 16.2883 35.0383L18.1633 33.1633C18.2504 33.0762 18.3195 32.9728 18.3666 32.859C18.4138 32.7452 18.438 32.6232 18.438 32.5C18.438 32.3768 18.4138 32.2548 18.3666 32.141C18.3195 32.0272 18.2504 31.9238 18.1633 31.8367C18.0762 31.7496 17.9728 31.6805 17.859 31.6334C17.7452 31.5862 17.6232 31.562 17.5 31.562C17.3768 31.562 17.2548 31.5862 17.141 31.6334C17.0272 31.6805 16.9238 31.7496 16.8367 31.8367ZM32.5 18.4375C32.6231 18.4376 32.7451 18.4134 32.8589 18.3664C32.9727 18.3193 33.0762 18.2503 33.1633 18.1633L35.0383 16.2883C35.2142 16.1124 35.313 15.8738 35.313 15.625C35.313 15.3762 35.2142 15.1376 35.0383 14.9617C34.8624 14.7858 34.6238 14.687 34.375 14.687C34.1262 14.687 33.8876 14.7858 33.7117 14.9617L31.8367 16.8367C31.7055 16.9678 31.6161 17.1349 31.5798 17.3169C31.5436 17.4989 31.5621 17.6875 31.6332 17.8589C31.7042 18.0303 31.8245 18.1767 31.9788 18.2797C32.1331 18.3827 32.3145 18.4376 32.5 18.4375ZM33.1633 31.8367C32.9874 31.6608 32.7488 31.562 32.5 31.562C32.2512 31.562 32.0126 31.6608 31.8367 31.8367C31.6608 32.0126 31.562 32.2512 31.562 32.5C31.562 32.7488 31.6608 32.9874 31.8367 33.1633L33.7117 35.0383C33.7988 35.1254 33.9022 35.1945 34.016 35.2416C34.1298 35.2888 34.2518 35.313 34.375 35.313C34.4982 35.313 34.6202 35.2888 34.734 35.2416C34.8478 35.1945 34.9512 35.1254 35.0383 35.0383C35.1254 34.9512 35.1945 34.8478 35.2416 34.734C35.2888 34.6202 35.313 34.4982 35.313 34.375C35.313 34.2518 35.2888 34.1298 35.2416 34.016C35.1945 33.9022 35.1254 33.7988 35.0383 33.7117L33.1633 31.8367ZM15.625 25C15.625 24.7514 15.5262 24.5129 15.3504 24.3371C15.1746 24.1613 14.9361 24.0625 14.6875 24.0625H11.875C11.6264 24.0625 11.3879 24.1613 11.2121 24.3371C11.0363 24.5129 10.9375 24.7514 10.9375 25C10.9375 25.2486 11.0363 25.4871 11.2121 25.6629C11.3879 25.8387 11.6264 25.9375 11.875 25.9375H14.6875C14.9361 25.9375 15.1746 25.8387 15.3504 25.6629C15.5262 25.4871 15.625 25.2486 15.625 25ZM25 34.375C24.7514 34.375 24.5129 34.4738 24.3371 34.6496C24.1613 34.8254 24.0625 35.0639 24.0625 35.3125V38.125C24.0625 38.3736 24.1613 38.6121 24.3371 38.7879C24.5129 38.9637 24.7514 39.0625 25 39.0625C25.2486 39.0625 25.4871 38.9637 25.6629 38.7879C25.8387 38.6121 25.9375 38.3736 25.9375 38.125V35.3125C25.9375 35.0639 25.8387 34.8254 25.6629 34.6496C25.4871 34.4738 25.2486 34.375 25 34.375ZM38.125 24.0625H35.3125C35.0639 24.0625 34.8254 24.1613 34.6496 24.3371C34.4738 24.5129 34.375 24.7514 34.375 25C34.375 25.2486 34.4738 25.4871 34.6496 25.6629C34.8254 25.8387 35.0639 25.9375 35.3125 25.9375H38.125C38.3736 25.9375 38.6121 25.8387 38.7879 25.6629C38.9637 25.4871 39.0625 25.2486 39.0625 25C39.0625 24.7514 38.9637 24.5129 38.7879 24.3371C38.6121 24.1613 38.3736 24.0625 38.125 24.0625Z" fill="#FB7300"/>
</svg>
